<svg width="60" height="60" viewBox="0 0 60 60" fill="none" xmlns="http://www.w3.org/2000/svg">
<rect x="0.5" y="0.5" width="59" height="59" rx="29.5" stroke="#E7E7E7"/>
<path d="M26.6667 34.0203C32.0891 34.0203 36.6667 34.9125 36.6667 38.3584C36.6667 41.8042 32.0597 42.6667 26.6667 42.6667C21.2443 42.6667 16.6667 41.7731 16.6667 38.3286C16.6667 34.8828 21.2723 34.0203 26.6667 34.0203ZM39.332 24C39.9936 24 40.5306 24.546 40.5306 25.2155V26.7839H42.1347C42.795 26.7839 43.3334 27.3298 43.3334 27.9993C43.3334 28.6689 42.795 29.2148 42.1347 29.2148H40.5306V30.7846C40.5306 31.4541 39.9936 32 39.332 32C38.6717 32 38.1334 31.4541 38.1334 30.7846V29.2148H36.532C35.8703 29.2148 35.3334 28.6689 35.3334 27.9993C35.3334 27.3298 35.8703 26.7839 36.532 26.7839H38.1334V25.2155C38.1334 24.546 38.6717 24 39.332 24ZM26.6667 17.3334C30.3394 17.3334 33.2835 20.3155 33.2835 24.0358C33.2835 27.7561 30.3394 30.7383 26.6667 30.7383C22.9939 30.7383 20.0498 27.7561 20.0498 24.0358C20.0498 20.3155 22.9939 17.3334 26.6667 17.3334Z" fill="black"/>
</svg>
